<svg width="53" height="64" viewBox="0 0 53 64" fill="none" xmlns="http://www.w3.org/2000/svg">
<g clip-path="url(#clip0_68_45)">
<path fill-rule="evenodd" clip-rule="evenodd" d="M20.6112 6.09524H32.389C34.0085 6.09524 35.3335 4.72381 35.3335 3.04762C35.3335 1.37143 34.0085 0 32.389 0H20.6112C18.9918 0 17.6668 1.37143 17.6668 3.04762C17.6668 4.72381 18.9918 6.09524 20.6112 6.09524ZM47.1996 19.4743L49.4079 17.1886C50.5268 16.0305 50.5562 14.1105 49.4079 12.9219L49.3785 12.8914C48.2301 11.7029 46.4046 11.7333 45.2562 12.8914L43.0479 15.1771C38.484 11.3981 32.7424 9.14286 26.5001 9.14286C12.3668 9.14286 0.353466 21.2114 0.000132198 35.84C-0.382646 51.3219 11.6012 64 26.5001 64C41.1635 64 53.0001 51.7181 53.0001 36.5714C53.0001 30.1105 50.8212 24.1676 47.1996 19.4743ZM26.5001 57.9048C15.1051 57.9048 5.88902 48.3657 5.88902 36.5714C5.88902 24.7771 15.1051 15.2381 26.5001 15.2381C37.8951 15.2381 47.1112 24.7771 47.1112 36.5714C47.1112 48.3657 37.8951 57.9048 26.5001 57.9048ZM22.9962 42.6667H12.1018C10.9829 42.6667 10.2762 43.8857 10.7768 44.9219C12.4257 48.3352 15.0168 51.0476 18.344 52.7543C19.0212 53.0895 19.8751 52.8152 20.2579 52.1143L24.2918 44.9524C24.8512 43.9467 24.1446 42.6667 22.9962 42.6667ZM34.5385 20.2667C33.8612 19.901 33.0074 20.2057 32.6246 20.8762L28.5612 28.16C27.9724 29.1962 28.679 30.4762 29.8274 30.4762H40.8985C42.0174 30.4762 42.724 29.2571 42.2235 28.2514C40.5157 24.8076 37.8362 22.0343 34.5385 20.2667ZM32.0357 41.7524C31.4762 40.7162 30.0335 40.6857 29.474 41.7219L23.4674 52.4495C22.9374 53.4248 23.5262 54.6438 24.6157 54.7352C28.5612 55.1619 32.5362 54.1867 35.8929 52.0229C36.5407 51.5962 36.7174 50.7124 36.364 50.0114L32.0357 41.7524ZM21.524 37.2724L14.5162 26.1181C13.9274 25.2038 12.6318 25.2038 12.0429 26.1181C9.65791 29.6533 8.59791 33.9505 8.95124 38.2476C9.01013 39.04 9.65791 39.619 10.4235 39.619H20.2874C21.4357 39.619 22.1424 38.2781 21.524 37.2724ZM32.3007 35.779L38.2485 47.1771C38.7785 48.1829 40.1329 48.2438 40.7807 47.3295C43.3129 43.7333 44.4318 39.3448 44.0785 34.8952C44.0196 34.1029 43.3424 33.5238 42.6062 33.5238H33.6257C32.4774 33.5238 31.7707 34.7429 32.3007 35.779ZM21.1118 30.9943C21.7007 31.939 23.0551 31.9086 23.6146 30.9333L29.3268 20.7238C29.8862 19.7486 29.2385 18.5295 28.149 18.4076C24.1446 18.0419 20.1107 19.0476 16.7246 21.3638C16.0768 21.821 15.9296 22.7657 16.3418 23.4362L21.1118 30.9943Z" fill="white"/>
</g>
<defs>
<clipPath id="clip0_68_45">
<rect width="53" height="64" fill="white"/>
</clipPath>
</defs>
</svg>
