<svg width="48" height="48" viewBox="0 0 48 48" fill="none" xmlns="http://www.w3.org/2000/svg">
<g clip-path="url(#clip0_40_3)">
<path d="M47.4335 24C47.4335 10.7452 36.9689 0 24.0601 0C11.1514 0 0.686768 10.7452 0.686768 24C0.686768 35.9789 9.23402 45.908 20.408 47.7084V30.9375H14.4734V24H20.408V18.7125C20.408 12.6975 23.8976 9.375 29.2365 9.375C31.793 9.375 34.4686 9.84375 34.4686 9.84375V15.75H31.5214C28.6179 15.75 27.7122 17.6002 27.7122 19.5V24H34.1947L33.1584 30.9375H27.7122V47.7084C38.8862 45.908 47.4335 35.9789 47.4335 24Z" fill="white"/>
</g>
<defs>
<clipPath id="clip0_40_3">
<rect width="46.7467" height="48" fill="white" transform="translate(0.686768)"/>
</clipPath>
</defs>
</svg>
