<svg width="48" height="48" viewBox="0 0 48 48" fill="none" xmlns="http://www.w3.org/2000/svg">
<g clip-path="url(#clip0_40_15)">
<path fill-rule="evenodd" clip-rule="evenodd" d="M33.3475 13.0957C30.9341 10.7323 27.7135 9.44476 24.3812 9.49767C18.2834 9.49767 13.1046 13.7218 11.2581 19.4098C10.279 22.3905 10.279 25.6182 11.2581 28.5989H11.2666C13.1217 34.2782 18.292 38.5023 24.3897 38.5023C27.5374 38.5023 30.2397 37.6756 32.3341 36.2154V36.2095C34.7989 34.534 36.4823 31.8972 37.0062 28.9165H24.3812V19.6745H46.4277C46.7025 21.2795 46.8313 22.9198 46.8313 24.5512C46.8313 31.8509 44.2907 38.0225 39.8701 42.2025L39.8747 42.2061C36.0013 45.8747 30.6851 48 24.3812 48C15.5437 48 7.46198 42.8852 3.49413 34.7808C0.179031 27.9993 0.179039 20.0096 3.49416 13.228C7.462 5.11485 15.5437 -3.06172e-05 24.3812 -3.06172e-05C30.1869 -0.0705799 35.7952 2.16936 40.0207 6.24359L33.3475 13.0957Z" fill="white"/>
</g>
<defs>
<clipPath id="clip0_40_15">
<rect width="46.7467" height="48" fill="white" transform="translate(0.540283)"/>
</clipPath>
</defs>
</svg>
