<svg width="48" height="48" viewBox="0 0 48 48" fill="none" xmlns="http://www.w3.org/2000/svg">
<g clip-path="url(#clip0_40_7)">
<path d="M24.3448 4.32187C30.5899 4.32187 31.3294 4.35 33.7855 4.4625C36.068 4.56562 37.3006 4.95938 38.1223 5.2875C39.2088 5.71875 39.994 6.24375 40.8066 7.07812C41.6283 7.92188 42.1305 8.71875 42.5505 9.83438C42.87 10.6781 43.2535 11.9531 43.3539 14.2875C43.4635 16.8187 43.4909 17.5781 43.4909 23.9813C43.4909 30.3938 43.4635 31.1531 43.3539 33.675C43.2535 36.0188 42.87 37.2844 42.5505 38.1281C42.1305 39.2438 41.6192 40.05 40.8066 40.8844C39.9849 41.7281 39.2088 42.2438 38.1223 42.675C37.3006 43.0031 36.0589 43.3969 33.7855 43.5C31.3203 43.6125 30.5807 43.6406 24.3448 43.6406C18.0997 43.6406 17.3602 43.6125 14.9042 43.5C12.6216 43.3969 11.389 43.0031 10.5673 42.675C9.4808 42.2438 8.6956 41.7188 7.88301 40.8844C7.06129 40.0406 6.55913 39.2438 6.13914 38.1281C5.81958 37.2844 5.43611 36.0094 5.33568 33.675C5.22612 31.1438 5.19873 30.3844 5.19873 23.9813C5.19873 17.5688 5.22612 16.8094 5.33568 14.2875C5.43611 11.9437 5.81958 10.6781 6.13914 9.83438C6.55913 8.71875 7.07042 7.9125 7.88301 7.07812C8.70473 6.23438 9.4808 5.71875 10.5673 5.2875C11.389 4.95938 12.6307 4.56562 14.9042 4.4625C17.3602 4.35 18.0997 4.32187 24.3448 4.32187ZM24.3448 0C17.9993 0 17.205 0.028125 14.7124 0.140625C12.229 0.253125 10.5216 0.665625 9.04255 1.25625C7.49954 1.875 6.19392 2.69062 4.89743 4.03125C3.59181 5.3625 2.79748 6.70313 2.19489 8.27813C1.61968 9.80625 1.21795 11.55 1.10839 14.1C0.998826 16.6687 0.971436 17.4844 0.971436 24C0.971436 30.5156 0.998826 31.3313 1.10839 33.8906C1.21795 36.4406 1.61968 38.1938 2.19489 39.7125C2.79748 41.2969 3.59181 42.6375 4.89743 43.9688C6.19392 45.3 7.49955 46.125 9.03342 46.7344C10.5216 47.325 12.2199 47.7375 14.7033 47.85C17.1958 47.9625 17.9902 47.9906 24.3357 47.9906C30.6812 47.9906 31.4755 47.9625 33.9681 47.85C36.4515 47.7375 38.1588 47.325 39.6379 46.7344C41.1718 46.125 42.4774 45.3 43.7739 43.9688C45.0704 42.6375 45.8739 41.2969 46.4673 39.7219C47.0425 38.1938 47.4443 36.45 47.5538 33.9C47.6634 31.3406 47.6908 30.525 47.6908 24.0094C47.6908 17.4938 47.6634 16.6781 47.5538 14.1188C47.4443 11.5688 47.0425 9.81563 46.4673 8.29688C45.8921 6.70312 45.0978 5.3625 43.7922 4.03125C42.4957 2.7 41.1901 1.875 39.6562 1.26562C38.168 0.675 36.4697 0.2625 33.9863 0.15C31.4846 0.028125 30.6903 0 24.3448 0Z" fill="white"/>
<path d="M24.3449 11.6719C17.7163 11.6719 12.3386 17.1938 12.3386 24C12.3386 30.8062 17.7163 36.3281 24.3449 36.3281C30.9734 36.3281 36.3511 30.8062 36.3511 24C36.3511 17.1938 30.9734 11.6719 24.3449 11.6719ZM24.3449 31.9969C20.0445 31.9969 16.5568 28.4156 16.5568 24C16.5568 19.5844 20.0445 16.0031 24.3449 16.0031C28.6452 16.0031 32.1329 19.5844 32.1329 24C32.1329 28.4156 28.6452 31.9969 24.3449 31.9969Z" fill="white"/>
<path d="M39.6289 11.1843C39.6289 12.778 38.3689 14.0624 36.8259 14.0624C35.2738 14.0624 34.0229 12.7687 34.0229 11.1843C34.0229 9.59053 35.2829 8.30615 36.8259 8.30615C38.3689 8.30615 39.6289 9.5999 39.6289 11.1843Z" fill="white"/>
</g>
<defs>
<clipPath id="clip0_40_7">
<rect width="46.7467" height="48" fill="white" transform="translate(0.971436)"/>
</clipPath>
</defs>
</svg>
