<svg width="53" height="56" viewBox="0 0 53 56" fill="none" xmlns="http://www.w3.org/2000/svg">
<path d="M18.2747 29.6C14.3855 25.52 14.3029 21.7667 14.7478 20.4L2.16502 6.80002C-5.38462 15.04 8.69641 34.5334 15.5597 42.1L21.7064 33.2C22.183 33.7 22.1639 33.68 18.2747 29.6Z" fill="white"/>
<path d="M24.9014 36.6108C28.7906 40.6784 32.3685 40.7648 33.6712 40.2996L46.6353 53.4595C38.7806 61.3555 22.3912 48.9732 15.1784 41.795L21.4698 33.0217C20.9932 32.5232 21.0122 32.5431 24.9014 36.6108Z" fill="white"/>
<path fill-rule="evenodd" clip-rule="evenodd" d="M16.3309 5.61823L16.3957 5.55176L11.3436 0.272288C10.8987 -0.0536051 9.70399 -0.353427 8.48385 1.05443L3.62233 5.55176L9.53378 11.7985L9.53236 11.8L15.9736 18.6L21.0887 13.3C21.4044 12.8333 21.6949 11.58 20.3309 10.3L16.3309 5.61823Z" fill="white"/>
<path fill-rule="evenodd" clip-rule="evenodd" d="M47.9787 39.2181L48.0434 39.1518L42.9912 33.8723C42.5464 33.5464 41.3516 33.2466 40.1315 34.6544L35.27 39.1518L41.1815 45.3986L41.1802 45.4L47.6215 52.2L52.7366 46.9C53.0523 46.4333 53.3428 45.18 51.9788 43.9L47.9787 39.2181Z" fill="white"/>
</svg>
