<svg width="48" height="48" viewBox="0 0 48 48" fill="none" xmlns="http://www.w3.org/2000/svg">
<g clip-path="url(#clip0_40_76)">
<path fill-rule="evenodd" clip-rule="evenodd" d="M47.0028 24C47.0028 37.2548 36.5382 48 23.6295 48C10.7207 48 0.256104 37.2548 0.256104 24C0.256104 10.7452 10.7207 0 23.6295 0C36.5382 0 47.0028 10.7452 47.0028 24ZM24.4671 17.7179C22.1937 18.6888 17.6501 20.6984 10.8362 23.7466C9.72978 24.1984 9.15017 24.6404 9.09741 25.0726C9.00823 25.803 9.899 26.0906 11.112 26.4822C11.277 26.5355 11.448 26.5907 11.6232 26.6492C12.8166 27.0475 14.422 27.5135 15.2565 27.5321C16.0135 27.5489 16.8585 27.2284 17.7913 26.5707C24.1576 22.158 27.444 19.9276 27.6503 19.8795C27.7959 19.8456 27.9976 19.803 28.1342 19.9277C28.2709 20.0524 28.2575 20.2886 28.243 20.352C28.1547 20.7383 24.6582 24.0762 22.8487 25.8035C22.2845 26.3421 21.8844 26.724 21.8026 26.8113C21.6194 27.0067 21.4326 27.1915 21.2531 27.3692C20.1444 28.4667 19.313 29.2896 21.2992 30.6336C22.2536 31.2794 23.0174 31.8135 23.7794 32.3463C24.6115 32.9282 25.4415 33.5085 26.5153 34.2313C26.7889 34.4155 27.0502 34.6068 27.3047 34.793C28.2731 35.5019 29.1432 36.1388 30.218 36.0373C30.8426 35.9782 31.4877 35.3752 31.8154 33.5767C32.5897 29.3263 34.1117 20.1169 34.4635 16.3219C34.4943 15.9895 34.4555 15.5639 34.4244 15.3771C34.3932 15.1904 34.3282 14.9242 34.0917 14.7272C33.8117 14.4939 33.3794 14.4447 33.186 14.4482C32.3069 14.4641 30.9581 14.9456 24.4671 17.7179Z" fill="white"/>
</g>
<defs>
<clipPath id="clip0_40_76">
<rect width="46.7467" height="48" fill="white" transform="translate(0.256104)"/>
</clipPath>
</defs>
</svg>
